<svg id="Layer_1" data-name="Layer 1" xmlns="http://www.w3.org/2000/svg" viewBox="0 0 1438.76 376.76"><defs><style>.cls-1{fill:#5540ad;}</style></defs><path class="cls-1" d="M7920.41-7387.26q0,186.09.09,372.18c0,3.74-.84,4.58-4.59,4.58q-717.09-.15-1434.17-.09v-375.83c3.9,1.49,6.37,4,9.15,5.94a1487.66,1487.66,0,0,0,152.54,95.31c66.14,35.84,134.31,67.06,206.54,88.89,55.55,16.79,112.09,27.46,170.39,26,47.84-1.19,95.12-8,142.2-16.1,68-11.69,135.37-26.56,202.39-42.89,148.07-36.05,294.65-77.51,440.34-122.13C7843.72-7363.14,7882-7375.29,7920.41-7387.26Z" transform="translate(-6481.74 7387.26)"/></svg>